<!-- Generated by IcoMoon.io -->
<svg version="1.1" xmlns="http://www.w3.org/2000/svg" width="32" height="32" viewBox="0 0 32 32">
<title>facebook</title>
<path d="M29.312 16q0-2.751-1.031-5.156t-2.875-4.251-4.251-2.875-5.156-1.031-5.156 1.031-4.251 2.875-2.875 4.251-1.031 5.156q0 2.437 0.781 4.593t2.251 3.907 3.407 2.937 4.188 1.625v-9.063h-2.625v-4h2.625v-3.312q0-1.312 0.656-2.375t1.688-1.688 2.344-0.625h3.312v4h-2.625q-0.563 0-0.969 0.407t-0.407 0.907v2.688h4v4h-4v9.251q2.563-0.251 4.751-1.375t3.812-2.907 2.531-4.063 0.907-4.907z"></path>
</svg>
