<!-- Generated by IcoMoon.io -->
<svg version="1.1" xmlns="http://www.w3.org/2000/svg" width="32" height="32" viewBox="0 0 32 32">
<title>instagram</title>
<path d="M9.333 1.333c-2.209 0-4.211 0.897-5.657 2.343s-2.343 3.448-2.343 5.657v13.333c0 2.209 0.897 4.211 2.343 5.657s3.448 2.343 5.657 2.343h13.333c2.209 0 4.211-0.897 5.657-2.343s2.343-3.448 2.343-5.657v-13.333c0-2.209-0.897-4.211-2.343-5.657s-3.448-2.343-5.657-2.343zM9.333 4h13.333c1.473 0 2.804 0.596 3.771 1.563s1.563 2.297 1.563 3.771v13.333c0 1.473-0.596 2.804-1.563 3.771s-2.297 1.563-3.771 1.563h-13.333c-1.473 0-2.804-0.596-3.771-1.563s-1.563-2.297-1.563-3.771v-13.333c0-1.473 0.596-2.804 1.563-3.771s2.297-1.563 3.771-1.563zM22.652 14.964c-0.2-1.296-0.761-2.476-1.592-3.423-1.005-1.148-2.405-1.953-4.012-2.192-0.619-0.099-1.293-0.103-1.969-0.003-1.821 0.269-3.361 1.255-4.376 2.623s-1.511 3.129-1.24 4.949 1.255 3.361 2.623 4.376 3.129 1.511 4.949 1.24 3.361-1.255 4.376-2.623 1.511-3.129 1.24-4.949zM20.015 15.356c0.163 1.093-0.133 2.145-0.744 2.969s-1.533 1.412-2.625 1.573-2.145-0.133-2.969-0.744-1.412-1.533-1.573-2.625 0.133-2.145 0.744-2.969 1.533-1.412 2.625-1.573c0.417-0.061 0.82-0.056 1.16-0.003 0.987 0.147 1.821 0.627 2.424 1.315 0.5 0.571 0.84 1.284 0.96 2.057zM23.333 10c0.736 0 1.333-0.597 1.333-1.333s-0.597-1.333-1.333-1.333-1.333 0.597-1.333 1.333 0.597 1.333 1.333 1.333z"></path>
</svg>
