<!-- Generated by IcoMoon.io -->
<svg version="1.1" xmlns="http://www.w3.org/2000/svg" width="32" height="32" viewBox="0 0 32 32">
<title>location</title>
<path d="M16 15.312q1.375 0 2.344-0.969t0.969-2.344-0.969-2.344-2.344-0.969-2.344 0.969-0.969 2.344 0.969 2.344 2.344 0.969zM16 2.688q3.875 0 6.593 2.719t2.719 6.593q0 1.937-0.969 4.437t-2.344 4.688-2.719 4.093-2.281 3.031l-1 1.063q-0.375-0.437-1-1.156t-2.251-2.875-2.844-4.188-2.219-4.593-1-4.5q0-3.875 2.719-6.593t6.593-2.719z"></path>
</svg>
