<!-- Generated by IcoMoon.io -->
<svg version="1.1" xmlns="http://www.w3.org/2000/svg" width="27" height="32" viewBox="0 0 27 32">
<title>whatsapp</title>
<path d="M17.59 17.393c0.304 0 3.214 1.518 3.339 1.733 0.035 0.089 0.035 0.197 0.035 0.267 0 0.447-0.143 0.946-0.304 1.358-0.41 1-2.072 1.642-3.089 1.642-0.857 0-2.625-0.75-3.393-1.107-2.553-1.161-4.143-3.143-5.679-5.41-0.679-1-1.286-2.232-1.267-3.464v-0.143c0.035-1.178 0.464-2.018 1.321-2.822 0.267-0.25 0.553-0.393 0.928-0.393 0.214 0 0.429 0.054 0.661 0.054 0.482 0 0.571 0.143 0.75 0.607 0.125 0.304 1.035 2.733 1.035 2.911 0 0.679-1.232 1.447-1.232 1.857 0 0.089 0.035 0.178 0.089 0.267 0.393 0.839 1.143 1.803 1.822 2.447 0.822 0.786 1.696 1.304 2.696 1.803 0.125 0.072 0.25 0.125 0.393 0.125 0.536 0 1.429-1.733 1.893-1.733zM13.965 26.857c6.178 0 11.214-5.035 11.214-11.214s-5.035-11.214-11.214-11.214-11.214 5.035-11.214 11.214c0 2.358 0.75 4.661 2.143 6.571l-1.41 4.161 4.321-1.375c1.822 1.197 3.982 1.857 6.161 1.857zM13.965 2.178c7.429 0 13.464 6.035 13.464 13.464s-6.035 13.464-13.464 13.464c-2.267 0-4.518-0.571-6.518-1.679l-7.447 2.393 2.429-7.232c-1.267-2.089-1.928-4.501-1.928-6.946 0-7.429 6.035-13.464 13.464-13.464z"></path>
</svg>
